<svg width="570" height="130" viewBox="0 0 570 130" fill="none" xmlns="http://www.w3.org/2000/svg">
<path d="M307.039 107C305.306 107 303.706 106.333 302.239 105C300.772 103.8 300.039 102.333 300.039 100.6V35.4C300.039 32.3333 301.039 29.8667 303.039 28C305.172 26 307.639 25 310.439 25H341.639C343.906 25 345.506 25.6 346.439 26.8C347.506 28 348.039 29.4667 348.039 31.2C348.039 32.9333 347.439 34.4 346.239 35.6C345.039 36.8 343.506 37.4 341.639 37.4H319.239C315.772 37.4 314.039 39.1333 314.039 42.6V54C314.039 57.4667 315.639 59.2 318.839 59.2H339.839C342.106 59.2 343.706 59.8667 344.639 61.2C345.706 62.4 346.239 63.8 346.239 65.4C346.239 67 345.639 68.4667 344.439 69.8C343.239 71 341.706 71.6 339.839 71.6H318.839C315.639 71.6 314.039 73.2667 314.039 76.6V100.6C314.039 102.333 313.306 103.8 311.839 105C310.506 106.333 308.906 107 307.039 107Z" fill="black"/>
<path d="M378.047 107C372.18 107 366.847 105.667 362.047 103C357.38 100.333 353.714 96.6667 351.047 92C348.38 87.2 347.047 81.8667 347.047 76C347.047 70.2667 348.38 65.1333 351.047 60.6C353.714 56.0667 357.38 52.5333 362.047 50C366.847 47.3333 372.18 46 378.047 46C383.914 46 389.18 47.3333 393.847 50C398.514 52.5333 402.18 56.0667 404.847 60.6C407.647 65.1333 409.047 70.2667 409.047 76C409.047 81.8667 407.647 87.2 404.847 92C402.18 96.6667 398.514 100.333 393.847 103C389.18 105.667 383.914 107 378.047 107ZM378.047 94.6C383.247 94.6 387.447 92.9333 390.647 89.6C393.847 86.1333 395.447 81.6 395.447 76C395.447 70.6667 393.847 66.4 390.647 63.2C387.447 60 383.247 58.4 378.047 58.4C372.714 58.4 368.447 60 365.247 63.2C362.18 66.4 360.647 70.6667 360.647 76C360.647 81.6 362.18 86.1333 365.247 89.6C368.447 92.9333 372.714 94.6 378.047 94.6Z" fill="black"/>
<path d="M428.569 75.4V100.8C428.569 102.8 427.835 104.333 426.369 105.4C425.035 106.467 423.502 107 421.769 107C420.035 107 418.435 106.467 416.969 105.4C415.635 104.333 414.969 102.8 414.969 100.8V53.8C414.969 51.5333 415.635 49.8667 416.969 48.8C418.435 47.6 420.035 47 421.769 47C423.502 47 425.035 47.6 426.369 48.8C427.835 49.8667 428.569 51.5333 428.569 53.8V54.6C430.435 52.0667 432.835 50 435.769 48.4C438.835 46.8 442.035 46 445.369 46C446.969 46 448.569 46.2 450.169 46.6C451.769 47 452.969 47.8 453.769 49C454.569 50.2 454.969 51.5333 454.969 53C454.969 54.7333 454.369 56.3333 453.169 57.8C452.102 59.1333 450.502 59.8 448.369 59.8C447.435 59.8 446.435 59.6667 445.369 59.4C444.435 59.1333 443.235 59 441.769 59C437.902 59 434.702 60.4667 432.169 63.4C429.769 66.3333 428.569 70.3333 428.569 75.4Z" fill="black"/>
<path d="M464.792 107C463.059 107 461.459 106.467 459.992 105.4C458.659 104.333 457.992 102.8 457.992 100.8V53.8C457.992 51.5333 458.659 49.8667 459.992 48.8C461.459 47.6 463.059 47 464.792 47C466.126 47 467.392 47.3333 468.592 48C469.792 48.5333 470.659 49.5333 471.192 51C471.459 51.8 471.592 52.5333 471.592 53.2C473.592 51.0667 476.192 49.3333 479.392 48C482.592 46.6667 485.726 46 488.792 46C497.459 46 503.859 49.4667 507.992 56.4C509.592 53.6 512.192 51.2 515.792 49.2C519.526 47.0667 524.059 46 529.392 46C536.592 46 542.326 48.4 546.592 53.2C550.859 58 552.992 65.0667 552.992 74.4V100.8C552.992 102.8 552.259 104.333 550.792 105.4C549.326 106.467 547.792 107 546.192 107C544.459 107 542.859 106.467 541.392 105.4C540.059 104.333 539.392 102.8 539.392 100.8V75.6C539.392 64.1333 535.126 58.4 526.592 58.4C521.792 58.4 518.326 59.6667 516.192 62.2C514.059 64.7333 512.726 67.7333 512.192 71.2V100.8C512.192 102.8 511.459 104.333 509.992 105.4C508.526 106.467 506.992 107 505.392 107C503.659 107 502.059 106.467 500.592 105.4C499.259 104.333 498.592 102.8 498.592 100.8V75.6C498.592 69.7333 497.459 65.4 495.192 62.6C492.926 59.8 489.859 58.4 485.992 58.4C480.259 58.4 476.392 60.2 474.392 63.8C472.526 67.2667 471.592 71.1333 471.592 75.4V100.8C471.592 102.8 470.859 104.333 469.392 105.4C468.059 106.467 466.526 107 464.792 107Z" fill="black"/>
<path fill-rule="evenodd" clip-rule="evenodd" d="M60.6508 100H87C93.6274 100 99 94.6274 99 88V61.6508L60.6508 100ZM67.1491 30H41C34.3726 30 29 35.3726 29 42V68.1491L67.1491 30Z" fill="black"/>
<path fill-rule="evenodd" clip-rule="evenodd" d="M2 17C2 9.26802 8.26801 3 16 3H112C119.732 3 126 9.26801 126 17V113C126 120.732 119.732 127 112 127H16C8.26802 127 2 120.732 2 113V17ZM16 15C14.8954 15 14 15.8954 14 17V113C14 114.105 14.8954 115 16 115H112C113.105 115 114 114.105 114 113V17C114 15.8954 113.105 15 112 15H16Z" fill="#018786"/>
<path d="M97.6262 45.6647C99.1375 44.1534 99.1375 41.6347 97.6262 40.2009L88.5588 31.1334C87.125 29.6222 84.6062 29.6222 83.095 31.1334L75.965 38.2247L90.4963 52.7559M29 85.2284V99.7597H43.5312L86.3887 56.8634L71.8575 42.3322L29 85.2284Z" fill="#018786"/>
<path d="M214.4 112C212.8 112 211.4 111.4 210.2 110.2L203.4 102.8C197.667 105.6 191.467 107 184.8 107C177.067 107 170 105.2 163.6 101.6C157.333 97.8667 152.333 92.8667 148.6 86.6C144.867 80.2 143 73 143 65C143 56.6 144.867 49.2667 148.6 43C152.333 36.7333 157.333 31.8667 163.6 28.4C170 24.8 177.067 23 184.8 23C192.533 23 199.467 24.8 205.6 28.4C211.867 31.8667 216.8 36.7333 220.4 43C224.133 49.2667 226 56.6 226 65C226 71 224.933 76.6 222.8 81.8C220.8 86.8667 217.933 91.2667 214.2 95L219.2 99.6C220.933 101.333 221.8 103.067 221.8 104.8C221.8 106.4 221.2 107.933 220 109.4C218.533 111.133 216.667 112 214.4 112ZM184.8 94.8C188 94.8 191 94.2667 193.8 93.2L187.2 86.8C185.467 85.2 184.6 83.3333 184.6 81.2C184.6 79.4667 185.133 78 186.2 76.8C187.933 75.3333 189.733 74.6 191.6 74.6C193.467 74.6 195 75.2 196.2 76.4L204.6 85.6C209.4 79.8667 211.8 73 211.8 65C211.8 56.4667 209.267 49.4 204.2 43.8C199.133 38.2 192.667 35.4 184.8 35.4C176.8 35.4 170.267 38.2 165.2 43.8C160.133 49.4 157.6 56.4667 157.6 65C157.6 70.3333 158.733 75.2667 161 79.8C163.267 84.3333 166.467 88 170.6 90.8C174.733 93.4667 179.467 94.8 184.8 94.8Z" fill="#018786"/>
<path d="M239.792 107C238.059 107 236.459 106.333 234.992 105C233.659 103.8 232.992 102.333 232.992 100.6V36C232.992 32.4 234.192 29.6667 236.592 27.8C239.126 25.9333 241.792 25 244.592 25H264.192C268.726 25 272.926 26 276.792 28C280.792 29.8667 283.992 32.6 286.392 36.2C288.792 39.6667 289.992 43.8667 289.992 48.8C289.992 53.4667 288.592 57.9333 285.792 62.2C283.126 66.3333 279.659 69.1333 275.392 70.6C277.259 71.4 278.992 72.7333 280.592 74.6C282.326 76.3333 283.859 78.6667 285.192 81.6L292.392 97.8C292.792 98.6 292.992 99.4667 292.992 100.4C292.992 102.8 292.192 104.533 290.592 105.6C289.126 106.667 287.592 107.2 285.992 107.2C283.326 107.2 281.459 105.933 280.392 103.4L272.192 84.2C270.459 80.3333 268.259 77.6667 265.592 76.2C262.926 74.7333 259.992 74 256.792 74H251.792C248.326 74 246.592 76 246.592 80V100.6C246.592 102.333 245.926 103.8 244.592 105C243.259 106.333 241.659 107 239.792 107ZM250.992 62H262.192C265.526 62 268.726 60.9333 271.792 58.8C274.992 56.5333 276.592 53.3333 276.592 49.2C276.592 45.2 275.126 42.2 272.192 40.2C269.392 38.2 266.326 37.2 262.992 37.2H251.592C248.259 37.2 246.592 38.8667 246.592 42.2V57.4C246.592 60.4667 248.059 62 250.992 62Z" fill="#018786"/>
</svg>
