<svg width="130" height="130" viewBox="0 0 130 130" fill="none" xmlns="http://www.w3.org/2000/svg">
<path fill-rule="evenodd" clip-rule="evenodd" d="M60.6508 100H87C93.6274 100 99 94.6274 99 88V61.6508L60.6508 100ZM67.1491 30H41C34.3726 30 29 35.3726 29 42V68.1491L67.1491 30Z" fill="black"/>
<path fill-rule="evenodd" clip-rule="evenodd" d="M2 17C2 9.26802 8.26801 3 16 3H112C119.732 3 126 9.26801 126 17V113C126 120.732 119.732 127 112 127H16C8.26802 127 2 120.732 2 113V17ZM16 15C14.8954 15 14 15.8954 14 17V113C14 114.105 14.8954 115 16 115H112C113.105 115 114 114.105 114 113V17C114 15.8954 113.105 15 112 15H16Z" fill="#018786"/>
<path d="M97.6262 45.6647C99.1375 44.1534 99.1375 41.6347 97.6262 40.2009L88.5588 31.1334C87.125 29.6222 84.6062 29.6222 83.095 31.1334L75.965 38.2247L90.4963 52.7559M29 85.2284V99.7597H43.5312L86.3887 56.8634L71.8575 42.3322L29 85.2284Z" fill="#018786"/>
</svg>
