<?xml version="1.0" standalone="no"?>
<!DOCTYPE svg PUBLIC "-//W3C//DTD SVG 20010904//EN"
 "http://www.w3.org/TR/2001/REC-SVG-20010904/DTD/svg10.dtd">
<svg version="1.0" xmlns="http://www.w3.org/2000/svg"
 width="496.000000pt" height="496.000000pt" viewBox="0 0 496.000000 496.000000"
 preserveAspectRatio="xMidYMid meet">
<metadata>
Created by potrace 1.14, written by Peter Selinger 2001-2017
</metadata>
<g transform="translate(0.000000,496.000000) scale(0.100000,-0.100000)"
fill="#000000" stroke="none">
<path d="M432 4946 c-150 -37 -294 -149 -365 -283 -71 -136 -67 18 -66 -2183
0 -1351 3 -2001 10 -2035 32 -151 150 -307 285 -377 132 -68 -34 -63 2189 -63
l2020 0 69 23 c136 46 254 146 320 271 70 134 66 -18 65 2181 0 1351 -3 2001
-10 2035 -6 28 -28 86 -49 131 -63 132 -178 234 -321 286 l-64 23 -2015 2
c-1614 1 -2026 -1 -2068 -11z m4022 -491 l26 -24 0 -1949 0 -1949 -25 -27 -24
-26 -1948 0 c-1906 0 -1949 1 -1973 20 l-25 19 -3 1948 c-3 2064 -4 1984 43
2004 11 4 893 8 1961 8 l1941 1 27 -25z"/>
<path d="M1475 3873 c-62 -13 -147 -50 -194 -85 -79 -59 -107 -93 -154 -188
l-42 -85 -3 -485 c-2 -267 -2 -527 0 -578 l3 -92 760 760 760 760 -555 -1
c-305 -1 -564 -3 -575 -6z"/>
<path d="M3285 3863 c-16 -9 -97 -83 -178 -164 l-149 -148 291 -291 291 -291
150 150 c86 86 157 165 165 185 19 45 19 89 1 124 -22 41 -417 430 -449 442
-40 14 -87 12 -122 -7z"/>
<path d="M1933 2525 l-853 -854 0 -291 0 -290 291 0 291 0 854 855 c470 470
854 857 854 860 0 8 -569 575 -578 575 -4 0 -391 -385 -859 -855z"/>
<path d="M3110 1845 l-765 -766 580 3 c644 4 617 1 730 73 107 68 189 186 215
309 7 33 9 242 8 599 l-3 547 -765 -765z"/>
</g>
</svg>
